<svg width="17" height="17" viewBox="0 0 17 17" fill="none" xmlns="http://www.w3.org/2000/svg">
<g clip-path="url(#clip0_212_1124)">
<path fill-rule="evenodd" clip-rule="evenodd" d="M5.17756 5.40626L1.84364 8.70666C2.51049 9.36682 3.27225 9.92317 4.1028 10.3584C4.33236 10.9613 4.6922 11.5266 5.18231 12.0118C7.02622 13.8371 10.0158 13.8371 11.8596 12.0118C12.3498 11.5266 12.7096 10.9613 12.9392 10.3584C13.7697 9.92317 14.5315 9.36682 15.1983 8.70666L11.8671 5.40895C11.8646 5.40648 11.8621 5.40401 11.8596 5.40155C10.0158 3.57619 7.02622 3.57619 5.18231 5.40155C5.18073 5.40312 5.17914 5.40469 5.17756 5.40626ZM11.5406 10.9539C10.5691 11.2785 9.54918 11.4447 8.52097 11.4447C7.49277 11.4447 6.4729 11.2785 5.50135 10.9539C5.60662 11.0921 5.72284 11.2248 5.85004 11.3508C7.32516 12.8111 9.71678 12.8111 11.1919 11.3508C11.3191 11.2248 11.4354 11.0921 11.5406 10.9539ZM5.91852 5.99647C6.16902 6.1603 6.43538 6.30049 6.71409 6.41479C7.28694 6.64968 7.90092 6.77058 8.52097 6.77058C9.14103 6.77058 9.75501 6.64968 10.3279 6.41479C10.6066 6.30049 10.8729 6.1603 11.1235 5.99646C9.66674 4.62432 7.37521 4.62432 5.91852 5.99647Z" fill="#3B4158"/>
</g>
<defs>
<clipPath id="clip0_212_1124">
<rect width="13.3547" height="9.34826" fill="white" transform="translate(1.84364 4.03253)"/>
</clipPath>
</defs>
</svg>
