<svg width="17" height="17" viewBox="0 0 17 17" fill="none" xmlns="http://www.w3.org/2000/svg">
<g clip-path="url(#clip0_212_1121)">
<path fill-rule="evenodd" clip-rule="evenodd" d="M4.75084 2.08046C6.59471 2.08046 8.0895 3.57523 8.0895 5.41912V2.08046H11.4282C13.272 2.08046 14.7668 3.57523 14.7668 5.41912C14.7668 7.263 13.272 8.75779 11.4282 8.75779C13.272 8.75779 14.7668 10.2526 14.7668 12.0965C14.7668 13.012 14.3983 13.8415 13.8015 14.4447L13.789 14.4573L13.7779 14.4683C13.1746 15.066 12.3445 15.4351 11.4282 15.4351C10.5181 15.4351 9.69303 15.071 9.09077 14.4804C9.08295 14.4728 9.07514 14.465 9.06736 14.4573C9.06005 14.4499 9.05277 14.4426 9.04553 14.4352C8.45422 13.8329 8.0895 13.0072 8.0895 12.0965C8.0895 13.9403 6.59471 15.4351 4.75084 15.4351C2.90694 15.4351 1.41217 13.9403 1.41217 12.0965V8.75779H4.75084C2.90694 8.75779 1.41217 7.263 1.41217 5.41912C1.41217 3.57523 2.90694 2.08046 4.75084 2.08046ZM7.42177 5.41912C7.42177 6.89425 6.22596 8.09006 4.75084 8.09006V2.74819C6.22596 2.74819 7.42177 3.94401 7.42177 5.41912ZM14.0991 12.0965C14.0991 10.6213 12.9033 9.42552 11.4282 9.42552C9.95304 9.42552 8.75723 10.6213 8.75723 12.0965H14.0991ZM2.0799 9.42552V12.0965C2.0799 13.5716 3.27572 14.7674 4.75084 14.7674C6.22596 14.7674 7.42177 13.5716 7.42177 12.0965V9.42552H2.0799ZM8.75723 8.09006V2.74819H11.4282C12.9033 2.74819 14.0991 3.94401 14.0991 5.41912C14.0991 6.89425 12.9033 8.09006 11.4282 8.09006H8.75723Z" fill="#263238"/>
</g>
<defs>
<clipPath id="clip0_212_1121">
<rect width="13.3547" height="13.3547" fill="white" transform="translate(1.41217 2.08046)"/>
</clipPath>
</defs>
</svg>
