<svg width="17" height="17" viewBox="0 0 17 17" fill="none" xmlns="http://www.w3.org/2000/svg">
<g clip-path="url(#clip0_212_1147)">
<path d="M14.9709 4.64806C14.9709 4.80364 15.0986 4.92976 15.2561 4.92976H15.5413C15.6988 4.92976 15.8264 4.80364 15.8264 4.64806C15.8264 4.49248 15.6988 4.36636 15.5413 4.36636H15.2561C15.0986 4.36636 14.9709 4.49248 14.9709 4.64806Z" fill="#212326"/>
<path d="M6.70084 13.3808H8.08618L7.68287 12.9824C7.57592 12.8768 7.43085 12.8174 7.27959 12.8174H6.70084C4.49584 12.8174 2.70835 11.0517 2.70835 8.87359C2.70835 6.69549 4.49584 4.9298 6.70084 4.92979H11.2637C13.4687 4.92979 15.2562 6.69549 15.2562 8.87359C15.2562 11.0517 13.4687 12.8174 11.2637 12.8174H9.55681C9.3299 12.8174 9.1123 12.7284 8.95185 12.5699L8.47936 12.1031C8.21196 11.839 7.84926 11.6906 7.47109 11.6906H6.70084C5.12583 11.6906 3.84906 10.4294 3.84906 8.87359C3.84906 7.3178 5.12583 6.05659 6.70084 6.05659H11.2637C12.8387 6.05659 14.1155 7.3178 14.1155 8.87359C14.1155 10.4294 12.8387 11.6906 11.2637 11.6906H10.1677C9.9408 11.6906 9.72319 11.6016 9.56274 11.4431L9.09024 10.9763C8.82283 10.7122 8.46015 10.5638 8.08199 10.5638H6.70084C5.75585 10.5638 4.98977 9.80706 4.98977 8.87359C4.98977 7.94013 5.75585 7.18339 6.70084 7.18339H11.2637C12.2087 7.18339 12.9747 7.94013 12.9747 8.87359C12.9747 9.79567 12.2272 10.5453 11.2982 10.5635L11.298 10.5638H10.8807C10.6537 10.5638 10.4361 10.4748 10.2757 10.3163L9.80318 9.84954C9.58378 9.63279 9.30022 9.49399 8.99658 9.45114L8.98226 9.43699H6.70084C6.38584 9.43699 6.13048 9.18475 6.13048 8.87359C6.13048 8.56244 6.38584 8.31019 6.70084 8.31019H11.2637C11.5787 8.31019 11.834 8.56244 11.834 8.87359C11.834 9.18475 11.5787 9.43699 11.2637 9.43699H10.123L10.5263 9.83538C10.6332 9.94103 10.7783 10.0004 10.9296 10.0004H11.2637C11.8937 10.0004 12.4044 9.4959 12.4044 8.87359C12.4044 8.25128 11.8937 7.74679 11.2637 7.74679H6.70084C6.07084 7.74679 5.56013 8.25128 5.56013 8.87359C5.56013 9.4959 6.07084 10.0004 6.70084 10.0004H8.79493C9.02184 10.0004 9.23944 10.0894 9.39989 10.2479L9.8724 10.7146C10.1398 10.9788 10.5025 11.1272 10.8807 11.1272H11.4063V11.1229C12.5998 11.0502 13.5451 10.0709 13.5451 8.87359C13.5451 7.62897 12.5237 6.61999 11.2637 6.61999H6.70084C5.44085 6.61999 4.41941 7.62897 4.41941 8.87359C4.41941 10.1182 5.44085 11.1272 6.70084 11.1272H8.08199C8.3089 11.1272 8.5265 11.2162 8.68695 11.3747L9.15946 11.8414C9.42686 12.1056 9.78954 12.254 10.1677 12.254H11.2637C13.1537 12.254 14.6858 10.7405 14.6858 8.87359C14.6858 7.00664 13.1537 5.49319 11.2637 5.49319H6.70084C4.81084 5.49319 3.2787 7.00664 3.2787 8.87359C3.2787 10.7405 4.81084 12.254 6.70084 12.254H7.47109C7.698 12.254 7.9156 12.343 8.07605 12.5015L8.54856 12.9682C8.81596 13.2324 9.17864 13.3808 9.55681 13.3808H11.2637C13.7837 13.3808 15.8265 11.3629 15.8265 8.87359C15.8265 6.38433 13.7837 4.36639 11.2637 4.36639L6.70084 4.36639C4.18085 4.3664 2.13799 6.38434 2.13799 8.87359C2.13799 11.3629 4.18085 13.3808 6.70084 13.3808Z" fill="#212326"/>
</g>
<defs>
<clipPath id="clip0_212_1147">
<rect width="13.6885" height="9.0144" fill="white" transform="translate(2.13799 4.36639)"/>
</clipPath>
</defs>
</svg>
