<svg width="18" height="17" viewBox="0 0 18 17" fill="none" xmlns="http://www.w3.org/2000/svg">
<g clip-path="url(#clip0_212_1151)">
<path d="M4.68713 5.36798C4.00914 5.36798 3.35892 5.63731 2.87951 6.11672L1.31492 7.68132C0.835505 8.16073 0.566175 8.81095 0.566175 9.48894C0.566175 10.9008 1.7107 12.0453 3.12255 12.0453C3.80054 12.0453 4.45076 11.776 4.93017 11.2966L6.01241 10.2143C6.01243 10.2143 6.01241 10.2143 6.01241 10.2143L9.16569 7.06104C9.39465 6.83208 9.70519 6.70345 10.029 6.70345C10.5711 6.70345 11.0307 7.05677 11.1901 7.5457L12.1852 6.55053C11.7312 5.83948 10.9352 5.36798 10.029 5.36798C9.35101 5.36798 8.70079 5.63731 8.22138 6.11672L3.98586 10.3523C3.75689 10.5812 3.44635 10.7098 3.12255 10.7098C2.44826 10.7098 1.90164 10.1632 1.90164 9.48894C1.90164 9.16513 2.03027 8.85459 2.25923 8.62563L3.82382 7.06104C4.05279 6.83208 4.36333 6.70345 4.68713 6.70345C5.22927 6.70345 5.68885 7.05678 5.84819 7.54573L6.84338 6.55055C6.38939 5.83949 5.59334 5.36798 4.68713 5.36798Z" fill="#394149"/>
<path d="M9.3277 10.3522C9.09874 10.5812 8.7882 10.7098 8.46439 10.7098C7.92235 10.7098 7.46279 10.3566 7.30341 9.86774L6.30826 10.8629C6.76227 11.5738 7.55828 12.0453 8.46439 12.0453C9.14239 12.0453 9.7926 11.7759 10.272 11.2965L14.5075 7.06101C14.7365 6.83205 15.047 6.70342 15.3708 6.70342C16.0451 6.70342 16.5917 7.25003 16.5917 7.92432C16.5917 8.24813 16.4631 8.55867 16.2342 8.78763L14.6696 10.3522C14.4406 10.5812 14.1301 10.7098 13.8063 10.7098C13.2642 10.7098 12.8046 10.3565 12.6452 9.86763L11.6501 10.8628C12.1041 11.5738 12.9001 12.0453 13.8063 12.0453C14.4843 12.0453 15.1345 11.7759 15.6139 11.2965L17.1785 9.73194C17.6579 9.25253 17.9272 8.60232 17.9272 7.92432C17.9272 6.51248 16.7827 5.36795 15.3708 5.36795C14.6929 5.36795 14.0426 5.63728 13.5632 6.11669L9.3277 10.3522Z" fill="#394149"/>
</g>
<defs>
<clipPath id="clip0_212_1151">
<rect width="17.3611" height="6.67733" fill="white" transform="translate(0.566175 5.36798)"/>
</clipPath>
</defs>
</svg>
