<svg width="17" height="17" viewBox="0 0 17 17" fill="none" xmlns="http://www.w3.org/2000/svg">
<g clip-path="url(#clip0_212_1131)">
<path d="M15.3938 5.22263C15.3938 5.23392 15.3938 5.24803 15.3909 5.2565C15.3762 5.36657 15.3762 5.47664 15.385 5.58954C15.3909 5.61776 15.3968 5.64598 15.4203 5.66856C15.4585 5.71089 15.5173 5.70243 15.5409 5.65163C15.5526 5.62623 15.5526 5.60082 15.5467 5.57542C15.5173 5.46818 15.5115 5.35528 15.5085 5.24521C15.5085 5.23957 15.5085 5.2311 15.5085 5.22263C15.5409 5.21981 15.5703 5.21699 15.5967 5.21699C15.6173 5.21417 15.635 5.21134 15.6497 5.20288C15.6938 5.1803 15.6938 5.13232 15.6467 5.10974C15.6291 5.10127 15.6056 5.09845 15.585 5.09845C15.5115 5.10127 15.4379 5.10127 15.3644 5.10127C15.338 5.10127 15.3115 5.1041 15.285 5.10692C15.2703 5.10974 15.2527 5.10974 15.2409 5.11821C15.2203 5.12667 15.2086 5.14078 15.2086 5.16054C15.2115 5.1803 15.2203 5.19159 15.2409 5.20005C15.2527 5.20852 15.2674 5.21134 15.2821 5.21134C15.3174 5.21417 15.3556 5.21981 15.3938 5.22263ZM16.2025 5.35246C16.2025 5.35528 16.2054 5.3581 16.2054 5.3581C16.2172 5.43431 16.229 5.50769 16.2378 5.58107C16.2407 5.60647 16.2437 5.62905 16.2613 5.6488C16.2995 5.69678 16.3584 5.69114 16.3848 5.64034C16.3966 5.61494 16.3995 5.58954 16.3936 5.56131C16.376 5.47664 16.3672 5.39197 16.3495 5.31013C16.3378 5.25932 16.3231 5.21134 16.3084 5.16619C16.2995 5.13796 16.279 5.11821 16.2437 5.11538C16.2084 5.10974 16.1819 5.12667 16.1672 5.15208C16.1496 5.17465 16.1349 5.19723 16.1231 5.22263C16.1025 5.26779 16.0849 5.31295 16.0614 5.35528C16.0584 5.36657 16.0555 5.37504 16.0496 5.3835C16.0467 5.37786 16.0437 5.37504 16.0437 5.37504C16.0055 5.30448 15.9702 5.23392 15.932 5.16619C15.9261 5.16054 15.9231 5.1549 15.9202 5.14925C15.9026 5.12385 15.882 5.10974 15.8496 5.10974C15.8202 5.11256 15.7967 5.1295 15.782 5.1549C15.7761 5.16619 15.7761 5.17465 15.7732 5.18594C15.7614 5.27626 15.7467 5.36657 15.7349 5.45689C15.7291 5.50769 15.7261 5.55849 15.7261 5.60929C15.7232 5.62058 15.7261 5.63469 15.732 5.64598C15.7379 5.66856 15.7555 5.68267 15.779 5.68549C15.8085 5.68832 15.829 5.67985 15.8379 5.65727C15.8467 5.64034 15.8496 5.62623 15.8526 5.61212C15.8643 5.56131 15.8731 5.51333 15.882 5.46535C15.8879 5.43713 15.8908 5.41455 15.8996 5.3835C15.9055 5.3948 15.9114 5.40326 15.9173 5.41173C15.9437 5.4456 15.9702 5.47947 16.0025 5.50769C16.0349 5.53027 16.0614 5.52744 16.0878 5.50204C16.0937 5.4964 16.0966 5.49358 16.1025 5.48793C16.129 5.44842 16.1613 5.40891 16.1878 5.36939C16.1937 5.36375 16.1966 5.3581 16.2025 5.35246Z" fill="#3A3B7B"/>
<path d="M9.42695 5.27807C9.4065 5.33171 9.4026 5.37035 9.41204 5.40247C9.42246 5.44615 9.44952 5.46045 9.48624 5.44934C9.83164 5.36736 10.589 5.60004 10.8694 5.66489C10.9356 5.67851 10.9894 5.59657 10.9442 5.52311C10.8784 5.45197 10.1213 5.14739 9.83247 5.13078C9.71924 5.12464 9.51682 5.09677 9.42695 5.27807Z" fill="#3A3B7B"/>
<path d="M12.387 4.2921C12.4238 4.31249 12.4444 4.33194 12.4545 4.35368C12.4697 4.38219 12.4617 4.40191 12.4363 4.41198C12.2079 4.51893 11.9041 4.97936 11.7815 5.13816C11.7518 5.17469 11.6832 5.15346 11.6728 5.09338C11.675 5.02546 11.9443 4.52579 12.0946 4.3897C12.1537 4.33656 12.2512 4.2323 12.387 4.2921Z" fill="#3A3B7B"/>
<path d="M10.5687 4.06546C10.613 4.03347 10.6589 4.02226 10.6824 4.04305C11.0269 4.3258 11.2096 4.77356 11.3227 5.18348C11.3269 5.19303 11.3272 5.20673 11.3238 5.22103C11.3224 5.23325 11.3131 5.24616 11.2983 5.25615C11.2825 5.26717 11.2689 5.27053 11.2625 5.26103C11.1116 5.06394 10.2493 4.29709 10.5687 4.06546Z" fill="#3A3B7B"/>
<path d="M3.27405 8.96765C3.35661 8.90866 3.44637 8.85954 3.54135 8.82143C3.64072 8.79417 3.74664 8.79868 3.8431 8.83433C3.93954 8.86997 4.02129 8.93478 4.07594 9.01897C4.12483 9.10294 4.14395 9.19989 4.13046 9.29522C4.11696 9.39052 4.07157 9.47905 4.00109 9.54746C3.94646 9.60291 3.88443 9.65121 3.81667 9.69113C3.51463 9.87841 3.20989 10.0554 2.90517 10.2427C2.84282 10.2896 2.77668 10.3316 2.70737 10.3684C2.60195 10.4189 2.48148 10.4324 2.36677 10.4066C2.25207 10.3809 2.15036 10.3174 2.07922 10.2273C2.02604 10.1635 1.98116 10.0937 1.94557 10.0195C1.65688 9.43715 1.35751 8.85734 1.07952 8.26471C0.951213 8.00818 0.846967 7.71313 0.745394 7.42837C0.701448 7.34563 0.692866 7.24971 0.721476 7.16099C0.750086 7.07227 0.813629 6.99776 0.89859 6.95331C0.983552 6.90886 1.08323 6.89799 1.17642 6.92299C1.26961 6.94798 1.34896 7.00689 1.3976 7.08716C1.54711 7.27786 1.67946 7.48041 1.79321 7.69263C2.08189 8.20571 2.35721 8.7188 2.6352 9.21651C2.65139 9.24401 2.66924 9.27055 2.68866 9.29603C2.8979 9.2116 3.09469 9.1012 3.27405 8.96765Z" fill="#3A3B7B"/>
<path d="M6.25883 8.78868C5.59861 9.53009 4.49199 9.3428 3.93601 8.38845C3.54039 7.71117 3.4709 6.59262 4.33162 5.88711C4.51541 5.73941 4.73518 5.63879 4.97045 5.59465C5.25891 5.55496 5.55306 5.6038 5.81085 5.7342C6.06865 5.86459 6.2769 6.06986 6.40586 6.32068C6.8763 7.14164 6.80947 8.18834 6.25883 8.78868ZM5.99153 7.05954C5.92139 6.8578 5.78068 6.68557 5.59325 6.57209C5.4872 6.49954 5.35833 6.46426 5.22835 6.47221C5.09836 6.48015 4.9752 6.53083 4.87957 6.6157C4.49734 6.94153 4.41714 7.71374 4.69513 8.17296C4.73057 8.24784 4.7826 8.31439 4.84763 8.36795C4.91266 8.42151 4.9891 8.46078 5.07159 8.48301C5.15409 8.50526 5.24064 8.50992 5.32522 8.4967C5.40979 8.48345 5.49032 8.45264 5.5612 8.40641C5.7684 8.25222 5.9204 8.03992 5.99608 7.79901C6.07178 7.55808 6.06739 7.30051 5.98353 7.06211L5.99153 7.05954Z" fill="#3A3B7B"/>
<path d="M8.95322 7.38279C8.88563 7.39675 8.81581 7.39758 8.74786 7.38524C8.67994 7.37289 8.61524 7.34765 8.55763 7.31097C8.50722 7.28329 8.46382 7.24524 8.43055 7.19954C8.39731 7.15383 8.37503 7.10164 8.36532 7.04667C8.35559 6.99172 8.35871 6.93539 8.37437 6.88172C8.39007 6.82805 8.41798 6.77839 8.45606 6.73629C8.52242 6.65171 8.61661 6.59115 8.72336 6.56441C9.00207 6.48678 9.28898 6.43945 9.57871 6.42332C9.64238 6.41621 9.70687 6.42138 9.76841 6.43852C9.82996 6.45569 9.8873 6.48445 9.93711 6.52318C9.9869 6.56188 10.0281 6.60976 10.0584 6.66398C10.0887 6.7182 10.1073 6.77768 10.1133 6.83892C10.1968 7.13973 10.206 7.45512 10.14 7.75994C9.89948 8.74507 9.07084 9.0837 8.14064 8.76815C7.87953 8.68379 7.65058 8.52658 7.48309 8.31664C7.25968 8.0638 7.10128 7.76416 7.02065 7.44181C6.95533 7.15476 6.96248 6.8569 7.04154 6.57306C7.12058 6.28922 7.26923 6.02764 7.47506 5.81016C7.6704 5.57379 7.92393 5.38777 8.21282 5.26885C8.39536 5.17228 8.60897 5.14482 8.81157 5.19188C8.85752 5.20409 8.89924 5.22788 8.93239 5.26078C8.96555 5.29368 8.98893 5.33449 9.00012 5.37899C9.0113 5.42348 9.00987 5.47004 8.99599 5.51383C8.98209 5.55761 8.95627 5.59704 8.92116 5.62801C8.85441 5.68601 8.78189 5.73757 8.70464 5.78194C8.467 5.92719 8.26021 6.11435 8.0952 6.33352C7.98704 6.47534 7.91254 6.63819 7.87699 6.8106C7.84142 6.98301 7.84565 7.16081 7.88939 7.3315C7.95 7.56422 8.08453 7.77312 8.27428 7.92924C8.86234 8.44235 9.62682 7.9472 9.49317 7.24683C9.29806 7.29301 9.12697 7.34176 8.95322 7.38279Z" fill="#3A3B7B"/>
<path d="M12.5458 8.82969C11.677 9.3428 10.688 8.82969 10.4715 7.75221C10.3138 6.98256 10.6132 5.90506 11.661 5.49458C11.8839 5.40913 12.1258 5.37912 12.364 5.40735C12.6502 5.45765 12.9128 5.59289 13.1147 5.79403C13.3166 5.99517 13.4477 6.25205 13.4893 6.52847C13.6657 7.44434 13.2648 8.42179 12.5458 8.82969ZM12.8478 7.10313C12.8476 6.89001 12.769 6.68378 12.626 6.52077C12.5495 6.41994 12.439 6.3477 12.3132 6.31635C12.1874 6.28501 12.0542 6.2965 11.9363 6.34889C11.4659 6.54385 11.1344 7.25193 11.2547 7.77274C11.2639 7.85446 11.2916 7.93328 11.3358 8.00368C11.38 8.07407 11.4397 8.13434 11.5108 8.18029C11.5818 8.22621 11.6624 8.25671 11.747 8.26963C11.8316 8.28252 11.9181 8.27755 12.0005 8.25504C12.2491 8.17166 12.4645 8.01585 12.6163 7.80933C12.7683 7.60281 12.8492 7.35592 12.8478 7.10313Z" fill="#3A3B7B"/>
<path d="M14.3678 9.04523C14.3547 9.13912 14.3033 9.22417 14.2248 9.28167C14.1464 9.33915 14.0473 9.36439 13.9495 9.3518C13.8517 9.33921 13.7631 9.28983 13.7032 9.21453C13.6432 9.13926 13.617 9.04419 13.6301 8.9503C13.6432 8.8564 13.6946 8.77136 13.7731 8.71386C13.8515 8.65636 13.9506 8.63114 14.0484 8.64373C14.1462 8.65631 14.2348 8.70567 14.2948 8.78097C14.3547 8.85627 14.381 8.95133 14.3678 9.04523ZM14.1353 5.58439C14.1861 5.50987 14.2607 5.45312 14.3479 5.42261C14.4351 5.39209 14.5302 5.38945 14.6191 5.41507C14.7094 5.43677 14.7893 5.4876 14.8452 5.55906C14.9012 5.63051 14.9299 5.71825 14.9265 5.80759C14.9147 5.95087 14.8924 6.09319 14.8597 6.23345C14.7715 6.70807 14.6859 7.18267 14.5924 7.65217C14.5496 7.83945 14.4935 8.01903 14.432 8.20887C14.4106 8.26822 14.3749 8.32184 14.3277 8.36537C14.2984 8.39811 14.261 8.42322 14.2189 8.43838C14.1768 8.45356 14.1314 8.45829 14.0869 8.45215C14.0424 8.44601 14.0002 8.4292 13.9643 8.40328C13.9284 8.37734 13.8998 8.34312 13.8813 8.3038C13.8496 8.23325 13.8323 8.15744 13.8306 8.0806C13.8306 7.76248 13.8306 7.4418 13.8519 7.1211C13.8883 6.66345 13.9597 6.20898 14.0658 5.76141C14.0783 5.70144 14.1018 5.6441 14.1353 5.59209V5.58439Z" fill="#3A3B7B"/>
<path fill-rule="evenodd" clip-rule="evenodd" d="M2.14472 11.1068C2.11316 11.1744 2.10451 11.2498 2.11993 11.3224C2.13019 11.418 2.15272 11.5121 2.18702 11.6024C2.22984 11.7131 2.27776 11.8225 2.33684 11.9573C2.35043 11.9883 2.36462 12.0207 2.37948 12.0548C2.45916 12.2375 2.55913 12.471 2.69247 12.8089C2.73022 12.9048 2.76373 13.0016 2.79748 13.0991C2.81112 13.1384 2.8248 13.1779 2.8388 13.2175C2.88901 13.3583 2.97539 13.4847 3.0899 13.5849C3.13852 13.64 3.20301 13.6801 3.27533 13.7002C3.34906 13.7207 3.42747 13.7194 3.50042 13.6965C3.57336 13.6736 3.63743 13.6301 3.6843 13.5718C3.73026 13.5146 3.75758 13.4457 3.76289 13.3737C3.79271 13.2334 3.78253 13.088 3.73339 12.9528C3.65541 12.7283 3.56657 12.5034 3.46412 12.2835L3.46365 12.2825C3.29512 11.9385 3.12382 11.5968 2.9444 11.2549L2.94306 11.2525C2.89054 11.1635 2.82228 11.0839 2.74135 11.0173C2.68882 10.9579 2.61635 10.9178 2.53632 10.9039C2.45459 10.8898 2.37029 10.9041 2.29848 10.9441C2.23055 10.9813 2.1767 11.0383 2.14472 11.1068Z" fill="#3A3B7B"/>
<path fill-rule="evenodd" clip-rule="evenodd" d="M4.71875 10.2596C4.4545 10.1939 4.17852 10.1843 3.91006 10.2315C3.70212 10.2512 3.49761 10.2972 3.3556 10.3884C3.28338 10.4348 3.22498 10.4944 3.1925 10.5701C3.15984 10.6463 3.15567 10.7334 3.18244 10.8304C3.2313 11.0082 3.29477 11.181 3.358 11.3533L3.36825 11.3812L3.36849 11.3818C3.5589 11.8823 3.75113 12.3811 3.9451 12.8781C3.96772 12.9565 3.99971 13.032 4.04041 13.1033L4.04118 13.1046C4.09495 13.1932 4.16393 13.2724 4.24519 13.3389C4.28583 13.3755 4.33609 13.4008 4.39059 13.4121C4.44562 13.4235 4.50285 13.4202 4.55604 13.4025C4.60926 13.3848 4.65638 13.3535 4.69229 13.3118C4.72762 13.2709 4.75076 13.2215 4.75925 13.169C4.79431 13.0264 4.78308 12.8769 4.72704 12.7405C4.70955 12.6947 4.69584 12.6478 4.68138 12.5984C4.67656 12.5819 4.67167 12.5652 4.66651 12.5481C5.11052 12.3816 5.58296 12.1576 5.74909 11.6365C5.81414 11.4564 5.81956 11.2615 5.7646 11.0783C5.70959 10.8949 5.59672 10.7324 5.44155 10.6131C5.23036 10.4461 4.98367 10.3254 4.71875 10.2596ZM3.98628 10.8987C3.99502 10.8963 4.00383 10.894 4.01266 10.8919C4.30173 10.8483 4.59747 10.9064 4.84544 11.0555C4.95473 11.1285 4.99949 11.2095 5.00718 11.2875C5.01512 11.3678 4.9847 11.4548 4.92359 11.5385C4.80812 11.6965 4.5974 11.8229 4.40706 11.8465C4.2683 11.5398 4.12739 11.2207 3.98628 10.8987Z" fill="#3A3B7B"/>
<path d="M6.48046 9.69814C6.79514 9.55865 7.18495 9.53456 7.48997 9.63263C7.56679 9.65411 7.63344 9.70056 7.67852 9.76404C7.72331 9.82713 7.74398 9.90316 7.73707 9.97916C7.73662 10.0285 7.724 10.077 7.70026 10.1208C7.6761 10.1654 7.64111 10.2037 7.59824 10.2326C7.55538 10.2615 7.50591 10.28 7.45402 10.2866C7.4021 10.2933 7.34931 10.2878 7.30006 10.2707L7.29631 10.2694L7.29279 10.2676C7.2676 10.255 7.24083 10.2455 7.21315 10.2393L7.2114 10.2389C6.99683 10.1842 6.79442 10.2748 6.72049 10.3862C6.68523 10.4393 6.68086 10.4929 6.71023 10.5417C6.74168 10.5939 6.81881 10.6525 6.9749 10.6942C7.01783 10.7055 7.06183 10.7165 7.10647 10.7275C7.22989 10.7582 7.35816 10.7901 7.48219 10.8342L7.48266 10.8344C8.05487 11.0434 8.26795 11.4762 8.195 11.8832C8.12284 12.2857 7.77258 12.6521 7.24585 12.7385C7.05419 12.7793 6.85473 12.7713 6.66721 12.7154C6.47922 12.6594 6.30977 12.5571 6.1757 12.4188L6.1722 12.4152C6.12988 12.363 6.10141 12.3018 6.08879 12.2368C6.07718 12.1782 6.0833 12.1176 6.10639 12.0621C6.12934 12.007 6.16817 11.9594 6.21827 11.9246C6.2712 11.8852 6.33499 11.8616 6.40177 11.8567C6.46833 11.8518 6.53493 11.8656 6.59337 11.8966C6.65174 11.9236 6.70604 11.9582 6.75477 11.9992L6.75569 12C6.8419 12.0757 6.94621 12.0954 7.04623 12.0771C7.14771 12.0586 7.24314 12.0009 7.30452 11.9245C7.36549 11.8485 7.38997 11.7582 7.36092 11.6706C7.33169 11.5823 7.24379 11.4835 7.05067 11.4008C7.00019 11.3802 6.94785 11.3636 6.89339 11.3475C6.87871 11.3431 6.86378 11.3388 6.84867 11.3344C6.80841 11.3226 6.76699 11.3106 6.72637 11.2973C6.69839 11.2881 6.67064 11.2794 6.64316 11.2708C6.56804 11.2473 6.4948 11.2245 6.42432 11.1938C6.27093 11.1436 6.1384 11.0474 6.04647 10.9193C5.95416 10.7906 5.90771 10.6368 5.91403 10.4807C5.91452 10.1004 6.16409 9.8384 6.48046 9.69814Z" fill="#3A3B7B"/>
<path d="M10.47 9.65763C10.409 9.62903 10.3416 9.61545 10.2737 9.61811C10.2059 9.6208 10.1398 9.63963 10.0814 9.67297C10.0234 9.70606 9.97488 9.75241 9.94009 9.80788C9.90819 9.8546 9.88611 9.90684 9.8751 9.96169C9.8641 10.0165 9.86437 10.0728 9.87587 10.1275C9.88723 10.1978 9.89983 10.2662 9.91227 10.3336C9.93287 10.4451 9.95291 10.5541 9.96614 10.6653L9.96663 10.6681C9.99674 10.8425 10.0125 11.0188 10.0139 11.1955L10.014 11.198C10.0243 11.3888 9.95659 11.5759 9.82534 11.7196L9.82325 11.7222C9.78055 11.7747 9.72345 11.8148 9.65833 11.838C9.59323 11.8611 9.52271 11.8665 9.45463 11.8533C9.38655 11.8402 9.32363 11.8092 9.27288 11.7637C9.22213 11.7182 9.18552 11.6599 9.16725 11.5956C9.12824 11.4602 9.10567 11.3208 9.09993 11.1804L9.16655 10.1624C9.16754 10.1491 9.16866 10.1354 9.1698 10.1216C9.17234 10.0907 9.17494 10.0592 9.17601 10.0299C9.17758 9.98665 9.17624 9.9422 9.16575 9.90012C9.15501 9.85713 9.13459 9.81622 9.09836 9.78139C9.0625 9.74691 9.01408 9.72147 8.95315 9.70415C8.84297 9.67354 8.7498 9.67451 8.67217 9.70613C8.5945 9.73775 8.54128 9.79646 8.50362 9.86428C8.46625 9.93153 8.44225 10.0111 8.42409 10.0909C8.41062 10.1501 8.39979 10.2122 8.3895 10.2713C8.38594 10.2917 8.38246 10.3117 8.37894 10.3311L8.37885 10.3317C8.3238 10.6559 8.30741 10.9852 8.33001 11.313C8.33422 11.4902 8.37271 11.665 8.44355 11.8287C8.52346 12.0399 8.66821 12.2228 8.85868 12.3534C9.04956 12.4843 9.27734 12.5564 9.51186 12.5602C9.74639 12.564 9.97658 12.4993 10.172 12.3747C10.367 12.2504 10.5182 12.0721 10.6055 11.8635C10.7276 11.5978 10.785 11.3088 10.7731 11.0186C10.7659 10.8067 10.7539 10.5933 10.742 10.3808C10.7361 10.2766 10.7303 10.1727 10.725 10.0693C10.7224 9.96572 10.6868 9.86536 10.623 9.78172C10.5835 9.72884 10.531 9.68619 10.47 9.65763Z" fill="#3A3B7B"/>
<path d="M12.6297 11.2539C12.6235 11.2615 12.617 11.2693 12.6102 11.2774C12.5605 11.0026 12.5145 10.7279 12.4685 10.4528C12.452 10.354 12.4354 10.2549 12.4187 10.1561L12.4168 10.145L12.4107 10.1355C12.3992 10.1176 12.398 10.1 12.398 10.0625V10.0582L12.3973 10.0539C12.3849 9.97644 12.3484 9.90437 12.2926 9.84712C12.237 9.79001 12.1648 9.75027 12.0854 9.73302C12.0061 9.71425 11.9228 9.71839 11.8459 9.74493C11.7693 9.7714 11.7024 9.81897 11.6538 9.88169C11.6134 9.92981 11.5802 9.98319 11.5554 10.0402C11.499 10.1631 11.4421 10.2863 11.3851 10.4098L11.3841 10.4119C11.2417 10.7203 11.0984 11.0307 10.9592 11.3436L10.9588 11.3446C10.8734 11.5475 10.8029 11.7612 10.7326 11.9743C10.7185 12.0168 10.7045 12.0594 10.6904 12.1018C10.665 12.169 10.6539 12.2404 10.6577 12.3118C10.6531 12.3758 10.669 12.4395 10.7034 12.4945C10.7385 12.5506 10.791 12.5948 10.8536 12.6208C10.9199 12.6487 10.994 12.6546 11.0642 12.6376C11.1343 12.6206 11.1965 12.5818 11.2411 12.5272C11.2981 12.46 11.347 12.3867 11.387 12.309C11.5049 12.0776 11.6175 11.8433 11.7297 11.6101C11.7731 11.5198 11.8153 11.439 11.8632 11.351C11.8665 11.3619 11.8699 11.3725 11.8734 11.3831C11.9236 11.5955 12.0085 11.799 12.1248 11.9861C12.1468 12.0257 12.1775 12.0604 12.2147 12.0876C12.2524 12.1152 12.2959 12.1346 12.3421 12.1444C12.3883 12.1543 12.4363 12.1543 12.4825 12.1446C12.5287 12.1348 12.5723 12.1155 12.61 12.088L12.6846 12.0344L13.2635 11.5664L13.2292 11.7758C13.1823 12.0636 13.1356 12.349 13.0861 12.6345C13.0537 12.761 13.0537 12.8932 13.0862 13.0197C13.1003 13.0909 13.1362 13.1564 13.1892 13.2079C13.2428 13.2599 13.3113 13.2952 13.386 13.3092C13.4607 13.3233 13.5381 13.3155 13.6081 13.2868C13.6771 13.2586 13.7358 13.2114 13.7768 13.1512C13.8723 13.0376 13.9317 12.9 13.948 12.7548C13.9726 12.5498 14.0003 12.342 14.0281 12.1343C14.0601 11.8948 14.0921 11.6555 14.1191 11.4207L14.1192 11.42C14.1452 11.163 14.1577 10.9049 14.1569 10.6467C14.1626 10.5651 14.1414 10.4838 14.0963 10.4144C14.051 10.3447 13.984 10.2905 13.9048 10.2595C13.8224 10.2235 13.7301 10.2139 13.6416 10.2321C13.5537 10.2501 13.4741 10.2946 13.4144 10.3591C13.3076 10.4538 13.2074 10.5553 13.1145 10.6627L13.1139 10.6634C13.0124 10.7847 12.9117 10.9084 12.8116 11.0313C12.7508 11.106 12.6901 11.1805 12.6297 11.2539Z" fill="#3A3B7B"/>
</g>
<defs>
<clipPath id="clip0_212_1131">
<rect width="15.6917" height="9.68213" fill="white" transform="translate(0.70488 4.03253)"/>
</clipPath>
</defs>
</svg>
