<svg width="23" height="20" viewBox="0 0 23 20" fill="none" xmlns="http://www.w3.org/2000/svg">
<path d="M22.2345 13.1845C22.2345 16.5035 19.5439 19.1941 16.2249 19.1941L7.21049 19.1941C6.28854 19.1941 5.54115 18.4467 5.54116 17.5247L5.54116 6.17326C5.54116 4.32937 7.03593 2.8346 8.87982 2.8346L20.5652 2.8346C21.4871 2.8346 22.2345 3.58199 22.2345 4.50393L22.2345 13.1845Z" fill="#E8F5E9"/>
<path d="M9.51965 6.84473C9.41548 6.84473 9.3308 6.76018 9.3308 6.65587V6.33492C9.3308 6.23074 9.41535 6.14606 9.51965 6.14606C9.62383 6.14606 9.70851 6.23061 9.70851 6.33492V6.65587C9.70851 6.76018 9.62383 6.84473 9.51965 6.84473Z" fill="#103E13"/>
<path d="M8.72559 6.84473C8.62141 6.84473 8.53673 6.76018 8.53673 6.65587V6.33492C8.53673 6.23074 8.62128 6.14606 8.72559 6.14606C8.82976 6.14606 8.91445 6.23061 8.91445 6.33492V6.65587C8.91431 6.76018 8.8299 6.84473 8.72559 6.84473Z" fill="#103E13"/>
<path d="M7.93165 6.84473C7.82748 6.84473 7.74279 6.76018 7.74279 6.65587V6.33492C7.74279 6.23074 7.82734 6.14606 7.93165 6.14606C8.03582 6.14606 8.12051 6.23061 8.12051 6.33492V6.65587C8.12051 6.76018 8.03596 6.84473 7.93165 6.84473Z" fill="#103E13"/>
<path d="M9.51965 8.15719C9.41548 8.15719 9.3308 8.07264 9.3308 7.96833V7.64751C9.3308 7.54333 9.41535 7.45865 9.51965 7.45865C9.62383 7.45865 9.70851 7.5432 9.70851 7.64751V7.96833C9.70851 8.07264 9.62383 8.15719 9.51965 8.15719Z" fill="#103E13"/>
<path d="M8.72559 8.15719C8.62141 8.15719 8.53673 8.07264 8.53673 7.96833V7.64751C8.53673 7.54333 8.62128 7.45865 8.72559 7.45865C8.82976 7.45865 8.91445 7.5432 8.91445 7.64751V7.96833C8.91431 8.07264 8.8299 8.15719 8.72559 8.15719Z" fill="#103E13"/>
<path d="M7.93165 8.15719C7.82748 8.15719 7.74279 8.07264 7.74279 7.96833V7.64751C7.74279 7.54333 7.82734 7.45865 7.93165 7.45865C8.03582 7.45865 8.12051 7.5432 8.12051 7.64751V7.96833C8.12051 8.07264 8.03596 8.15719 7.93165 8.15719Z" fill="#103E13"/>
<path d="M9.51965 9.46973C9.41548 9.46973 9.3308 9.38518 9.3308 9.28087V8.95992C9.3308 8.85574 9.41535 8.77106 9.51965 8.77106C9.62383 8.77106 9.70851 8.85561 9.70851 8.95992V9.28087C9.70851 9.38518 9.62383 9.46973 9.51965 9.46973Z" fill="#103E13"/>
<path d="M8.72559 9.46973C8.62141 9.46973 8.53673 9.38518 8.53673 9.28087V8.95992C8.53673 8.85574 8.62128 8.77106 8.72559 8.77106C8.82976 8.77106 8.91445 8.85561 8.91445 8.95992V9.28087C8.91431 9.38518 8.8299 9.46973 8.72559 9.46973Z" fill="#103E13"/>
<path d="M7.93165 9.46973C7.82748 9.46973 7.74279 9.38518 7.74279 9.28087V8.95992C7.74279 8.85574 7.82734 8.77106 7.93165 8.77106C8.03582 8.77106 8.12051 8.85561 8.12051 8.95992V9.28087C8.12051 9.38518 8.03596 9.46973 7.93165 9.46973Z" fill="#103E13"/>
<path d="M9.51965 10.782C9.41548 10.782 9.3308 10.6974 9.3308 10.5931V10.2722C9.3308 10.168 9.41535 10.0833 9.51965 10.0833C9.62383 10.0833 9.70851 10.1679 9.70851 10.2722V10.5931C9.70851 10.6974 9.62383 10.782 9.51965 10.782Z" fill="#103E13"/>
<path d="M8.72559 10.782C8.62141 10.782 8.53673 10.6974 8.53673 10.5931V10.2722C8.53673 10.168 8.62128 10.0833 8.72559 10.0833C8.82976 10.0833 8.91445 10.1679 8.91445 10.2722V10.5931C8.91431 10.6974 8.8299 10.782 8.72559 10.782Z" fill="#103E13"/>
<path d="M7.93165 10.782C7.82748 10.782 7.74279 10.6974 7.74279 10.5931V10.2722C7.74279 10.168 7.82734 10.0833 7.93165 10.0833C8.03582 10.0833 8.12051 10.1679 8.12051 10.2722V10.5931C8.12051 10.6974 8.03596 10.782 7.93165 10.782Z" fill="#103E13"/>
<path d="M9.51965 12.0944C9.41548 12.0944 9.3308 12.0099 9.3308 11.9056V11.5848C9.3308 11.4806 9.41535 11.3959 9.51965 11.3959C9.62383 11.3959 9.70851 11.4805 9.70851 11.5848V11.9056C9.70851 12.0098 9.62383 12.0944 9.51965 12.0944Z" fill="#103E13"/>
<path d="M8.72559 12.0944C8.62141 12.0944 8.53673 12.0099 8.53673 11.9056V11.5848C8.53673 11.4806 8.62128 11.3959 8.72559 11.3959C8.82976 11.3959 8.91445 11.4805 8.91445 11.5848V11.9056C8.91431 12.0098 8.8299 12.0944 8.72559 12.0944Z" fill="#103E13"/>
<path d="M7.93165 12.0944C7.82748 12.0944 7.74279 12.0099 7.74279 11.9056L7.74292 11.5848C7.74292 11.4806 7.82747 11.3959 7.93178 11.3959C8.03596 11.3959 8.12064 11.4805 8.12064 11.5848V11.9056C8.12051 12.0098 8.03596 12.0944 7.93165 12.0944V12.0944Z" fill="#103E13"/>
<path d="M2.5365 13.4006C2.5365 13.5047 2.62106 13.5894 2.72536 13.5894H14.2263C14.3305 13.5894 14.4152 13.5049 14.4152 13.4006C14.4152 13.2964 14.3306 13.2117 14.2263 13.2117H13.8772V7.78928C13.8772 7.68511 13.7926 7.60042 13.6883 7.60042L10.6048 7.60055V3.69127C10.6048 3.62516 10.5703 3.56405 10.514 3.5298C10.4577 3.49543 10.3874 3.49332 10.3289 3.52375L6.82321 5.34899C6.76065 5.38152 6.72167 5.44605 6.72167 5.51651V8.9312H3.3289C3.22473 8.9312 3.14005 9.01575 3.14005 9.12006V13.2117H2.72494C2.62077 13.2116 2.53635 13.2962 2.53635 13.4005L2.5365 13.4006ZM10.6049 10.4609H13.4997V13.2119L10.6049 13.2117V10.4609ZM10.6049 9.1485H13.4997V10.0833L10.6049 10.0832V9.1485ZM10.6049 7.97807H13.4997V8.77106H10.6049V7.97807ZM7.09919 5.63119L10.2271 4.00257V13.2116H7.09919V5.63119ZM4.45136 11.7033C4.45136 11.3114 4.76191 10.9924 5.14371 10.9924C5.5255 10.9924 5.83618 11.3112 5.83618 11.7033V13.2118H4.45136V11.7033ZM3.51775 9.30885H6.72162V13.2117H6.2139V11.7032C6.2139 11.1031 5.73399 10.6147 5.14371 10.6147C4.55369 10.6147 4.07379 11.1029 4.07379 11.7032V13.2117H3.51775V9.30885Z" fill="#103E13"/>
</svg>
