<svg width="23" height="20" viewBox="0 0 23 20" fill="none" xmlns="http://www.w3.org/2000/svg">
<path d="M22.6286 13.1844C22.6286 16.5034 19.938 19.194 16.619 19.194L7.60458 19.194C6.68263 19.194 5.93524 18.4466 5.93524 17.5247L5.93524 6.1732C5.93524 4.32931 7.43002 2.83454 9.27391 2.83454L20.9592 2.83454C21.8812 2.83454 22.6286 3.58193 22.6286 4.50387L22.6286 13.1844Z" fill="#E8F5E9"/>
<path d="M10.3796 8.39167C10.2992 8.39167 10.2246 8.36956 10.1582 8.33401V8.33495C10.1582 8.46144 10.1091 8.58022 10.0199 8.66918C9.93069 8.75838 9.812 8.80754 9.68566 8.80754C9.60409 8.80754 9.5285 8.78489 9.46148 8.74839C9.45471 8.8641 9.40846 8.97225 9.32595 9.05485C9.23675 9.14405 9.11806 9.19321 8.99164 9.19321C8.74048 9.19321 8.53652 8.99577 8.52182 8.74831C8.4441 8.79031 8.35624 8.81234 8.26562 8.80652C8.01855 8.79031 7.82506 8.57684 7.82506 8.3204V6.19479L7.58301 6.61411C7.49083 6.7745 7.31826 6.87408 7.13246 6.87408C7.04192 6.87408 6.95249 6.85032 6.87328 6.80494C6.77465 6.74775 6.70409 6.65596 6.67475 6.54614C6.64525 6.43626 6.66051 6.32134 6.71754 6.22285C6.71762 6.22285 7.50947 4.85159 7.55778 4.76736C7.56352 4.7547 7.57988 4.71797 7.5938 4.68666C7.6071 4.65677 7.6185 4.62609 7.62943 4.59526C7.86823 3.92109 8.45952 3.50231 9.17264 3.50231C10.0987 3.50231 10.8521 4.31925 10.8521 5.32341L10.8521 7.91901C10.8521 8.04534 10.8031 8.16403 10.7139 8.25332C10.6247 8.34252 10.506 8.39168 10.3796 8.39168L10.3796 8.39167ZM9.17264 3.75342C8.55989 3.75342 8.0715 4.09953 7.86613 4.67924C7.85299 4.71605 7.8393 4.75286 7.82334 4.78873C7.77701 4.89264 7.77701 4.89264 7.76395 4.90758L7.76222 4.90609C7.69756 5.02809 7.50548 5.36073 6.93497 6.34853C6.91153 6.38904 6.90532 6.43608 6.91727 6.48107C6.92939 6.52606 6.95841 6.56397 6.99861 6.58718C7.12336 6.65883 7.29421 6.61258 7.36531 6.4887L7.8419 5.66356C7.87038 5.6144 7.92795 5.59025 7.98317 5.6052C8.03808 5.61991 8.07623 5.6697 8.07623 5.72649V8.32047C8.07623 8.44287 8.16857 8.5485 8.28208 8.55597C8.34752 8.55943 8.40856 8.53749 8.45442 8.49171C8.49611 8.45002 8.51908 8.39449 8.51908 8.3351V6.6386C8.51908 6.56922 8.57532 6.51298 8.6447 6.51298C8.71407 6.51298 8.77031 6.56914 8.77031 6.6386L8.77023 8.72071C8.77023 8.84279 8.86958 8.94213 8.99166 8.94213C9.05096 8.94213 9.10665 8.91917 9.14842 8.87748C9.19011 8.83571 9.21308 8.78002 9.21308 8.72071V6.6386C9.21308 6.56922 9.26924 6.51298 9.3387 6.51298C9.40807 6.51298 9.46431 6.56914 9.46431 6.6386L9.46423 8.31559V8.33509C9.46423 8.45709 9.56358 8.55643 9.68574 8.55643C9.74497 8.55643 9.8005 8.53339 9.8425 8.49154C9.88419 8.44993 9.90716 8.3944 9.90716 8.33501V6.63851C9.90716 6.56913 9.96332 6.51289 10.0328 6.51289C10.1022 6.51289 10.1584 6.56905 10.1584 6.63851L10.1582 7.91907C10.1582 8.04123 10.2576 8.14057 10.3796 8.14057C10.439 8.14057 10.4945 8.11753 10.5362 8.07592C10.578 8.03407 10.6009 7.97838 10.6009 7.91907L10.601 5.32347C10.601 4.45785 9.96026 3.75345 9.17264 3.75345L9.17264 3.75342Z" fill="#103E13"/>
<path d="M5.44418 10.1957L7.267 9.10216C7.48677 8.97017 7.76955 9.02626 7.9105 9.2299C7.96195 9.30408 7.98822 9.39052 7.99231 9.47855C8.06027 9.44307 8.13421 9.4238 8.20948 9.4238C8.24802 9.4238 8.28672 9.4286 8.32495 9.43812C8.44742 9.46871 8.55062 9.54525 8.61552 9.65348C8.68049 9.76187 8.69945 9.88889 8.66885 10.0112C8.64061 10.1244 8.57179 10.2197 8.47606 10.285C8.543 10.3245 8.60073 10.3784 8.64179 10.447C8.70677 10.5554 8.72572 10.6824 8.6952 10.8048C8.6646 10.9271 8.58807 11.0303 8.47968 11.0954L8.47905 11.0958C8.54481 11.1352 8.60152 11.1885 8.64211 11.2561C8.70716 11.3645 8.72612 11.4915 8.69552 11.614C8.66484 11.7364 8.58831 11.8396 8.48008 11.9045L6.25439 13.2398C5.83899 13.4889 5.35878 13.5749 4.90241 13.4817C4.44194 13.3876 4.0606 13.1229 3.82873 12.7364C3.46178 12.1248 3.51677 11.4022 3.97196 10.8508C3.99281 10.8256 4.01334 10.8 4.03198 10.7734C4.05172 10.7453 4.07477 10.7122 4.08264 10.7009C4.12975 10.6168 4.89857 9.23158 4.89849 9.23174C4.97612 9.09165 5.12164 9.01235 5.27172 9.01243C5.34172 9.01243 5.41275 9.02966 5.47828 9.066C5.55741 9.1102 5.62387 9.17462 5.67036 9.25226C5.76593 9.41154 5.76931 9.61087 5.67933 9.77218L5.44418 10.1957ZM5.45512 9.38139C5.43074 9.34073 5.39723 9.30832 5.35624 9.28535C5.27153 9.23847 5.16487 9.26899 5.11823 9.35339C4.5681 10.3445 4.38057 10.6822 4.3082 10.8024L4.30985 10.8028C4.30379 10.823 4.30379 10.823 4.23756 10.9176C4.21507 10.9496 4.19061 10.9804 4.16567 11.0106C3.77426 11.4849 3.72881 12.0817 4.04399 12.6072C4.23922 12.9327 4.56188 13.1558 4.95257 13.2356C5.3475 13.3159 5.76377 13.2412 6.12505 13.0244L8.35094 11.6891C8.40176 11.6586 8.43763 11.6103 8.45194 11.5529C8.46626 11.4957 8.45737 11.4361 8.42685 11.3853C8.36408 11.2807 8.22777 11.2463 8.12315 11.3093L7.02509 11.9681C6.96562 12.0038 6.88838 11.9846 6.85275 11.9251C6.81704 11.8656 6.83631 11.7884 6.89577 11.7527L7.99392 11.094L8.35055 10.88C8.40137 10.8495 8.43731 10.8011 8.45163 10.7439C8.46594 10.6866 8.45706 10.627 8.42654 10.5762C8.36369 10.4715 8.22737 10.4375 8.12284 10.5002L6.66806 11.373C6.60843 11.4088 6.53143 11.3894 6.49572 11.3299C6.46001 11.2705 6.47935 11.1933 6.53874 11.1576L8.3242 10.0865C8.37502 10.056 8.41089 10.0077 8.4252 9.95036C8.43952 9.89309 8.43063 9.83355 8.40019 9.78274C8.36975 9.732 8.32137 9.69613 8.26403 9.68182C8.20637 9.6675 8.14707 9.67639 8.09641 9.70675L7.76589 9.90505C7.76581 9.90505 7.76581 9.90513 7.76573 9.90513H7.76565L6.31095 10.7778C6.25133 10.8137 6.17424 10.7944 6.13861 10.7348C6.1029 10.6754 6.12225 10.5982 6.18164 10.5625L7.63642 9.68977C7.68723 9.65925 7.72318 9.61087 7.73749 9.55369C7.75323 9.49092 7.74127 9.42673 7.70399 9.37293C7.63933 9.27941 7.50105 9.25455 7.3962 9.31755L5.17192 10.6519C5.12323 10.681 5.06086 10.6739 5.02003 10.6345C4.97913 10.5951 4.96993 10.533 4.99746 10.4834L5.45997 9.65005C5.50638 9.56675 5.50457 9.46386 5.45509 9.38143L5.45512 9.38139Z" fill="#103E13"/>
<path d="M14.1545 12.7363C13.9226 13.1229 13.5414 13.3875 13.0809 13.4816C12.6244 13.5746 12.1444 13.4888 11.7289 13.2397L9.50298 11.9044C9.39467 11.8394 9.31806 11.7362 9.28738 11.6137C9.25694 11.4914 9.27598 11.3643 9.34087 11.2561C9.38138 11.1884 9.43817 11.1351 9.50401 11.0957L9.50338 11.0953C9.39506 11.0303 9.31845 10.9271 9.28794 10.8047C9.25726 10.6823 9.27629 10.5552 9.34127 10.4469C9.38311 10.3772 9.44045 10.3228 9.5059 10.2842C9.41088 10.2188 9.34245 10.1239 9.31429 10.0112C9.28361 9.88877 9.30265 9.76173 9.36762 9.65349C9.43251 9.54518 9.53579 9.46864 9.65819 9.43805C9.69641 9.42846 9.73519 9.42374 9.77358 9.42374C9.84893 9.42381 9.92287 9.44293 9.99083 9.47848C9.995 9.39046 10.0212 9.30402 10.0726 9.22984C10.2137 9.02636 10.4962 8.97004 10.7163 9.1021L12.5391 10.1954L12.3041 9.77226C12.214 9.6107 12.2173 9.41137 12.3128 9.25201C12.3594 9.17445 12.4259 9.11003 12.5055 9.06543C12.5708 9.02925 12.6416 9.01211 12.7115 9.01211C12.8615 9.01218 13.0071 9.09131 13.0847 9.23141C13.355 9.71839 13.865 10.6368 13.9008 10.7009C13.9085 10.712 13.9315 10.745 13.9513 10.7731C13.9701 10.7998 13.9904 10.8253 14.0114 10.8506C14.4665 11.4023 14.5214 12.1248 14.1544 12.7363L14.1545 12.7363ZM13.8176 11.0107C13.7926 10.9804 13.768 10.9495 13.7457 10.9176C13.6777 10.8212 13.676 10.8187 13.6709 10.7934C13.5914 10.662 13.3976 10.3131 12.8649 9.35326C12.8181 9.26902 12.712 9.23827 12.6274 9.28499C12.5858 9.30827 12.5524 9.34076 12.528 9.38142C12.4786 9.46378 12.4767 9.56666 12.5233 9.65021L12.9857 10.4833C13.0133 10.533 13.0041 10.595 12.9633 10.6345C12.9225 10.674 12.8602 10.6809 12.8113 10.6518L10.587 9.31747C10.4822 9.25462 10.344 9.27925 10.2792 9.37285C10.2419 9.42665 10.23 9.49084 10.2456 9.55353C10.2599 9.61079 10.2958 9.65909 10.3467 9.68961C10.3469 9.68968 10.347 9.68984 10.3471 9.68992L11.8014 10.5624C11.8609 10.5981 11.8802 10.6752 11.8445 10.7347C11.8088 10.7941 11.7317 10.8136 11.6721 10.7778L9.88666 9.70668C9.836 9.67632 9.77638 9.66735 9.71912 9.68174C9.6617 9.69606 9.6134 9.73193 9.58296 9.78282C9.55244 9.83355 9.54363 9.8931 9.55779 9.95036C9.57211 10.0076 9.60805 10.056 9.65886 10.0865L10.0063 10.2949L11.4442 11.1576C11.5037 11.1933 11.523 11.2704 11.4873 11.33C11.4516 11.3893 11.3746 11.4087 11.3149 11.373L9.86031 10.5003C9.7557 10.4373 9.61946 10.4715 9.55653 10.5763C9.52601 10.6271 9.5172 10.6866 9.53136 10.7439C9.54568 10.8011 9.58163 10.8494 9.63252 10.88L9.98915 11.094L11.0871 11.7527C11.1466 11.7885 11.1659 11.8655 11.1302 11.9251C11.0945 11.9845 11.0174 12.004 10.9578 11.9681L9.85984 11.3093C9.80918 11.279 9.7498 11.27 9.69222 11.2844C9.63495 11.2987 9.5865 11.3346 9.55606 11.3853C9.52562 11.4361 9.51673 11.4958 9.53089 11.5529C9.54521 11.6102 9.58115 11.6585 9.63205 11.6891L11.8579 13.0244C12.2191 13.2411 12.6357 13.3161 13.0304 13.2356C13.421 13.1558 13.7437 12.9327 13.9389 12.6072C14.2544 12.0816 14.209 11.4847 13.8177 11.0107L13.8176 11.0107Z" fill="#103E13"/>
</svg>
