<svg width="22" height="20" viewBox="0 0 22 20" fill="none" xmlns="http://www.w3.org/2000/svg">
<path d="M21.8404 13.1844C21.8404 16.5034 19.1498 19.194 15.8308 19.194L6.81643 19.194C5.89448 19.194 5.1471 18.4466 5.1471 17.5247L5.1471 6.1732C5.1471 4.32931 6.64187 2.83454 8.48576 2.83454L20.1711 2.83454C21.093 2.83454 21.8404 3.58193 21.8404 4.50387L21.8404 13.1844Z" fill="#E8F5E9"/>
<path d="M8.14852 3.83615C6.9562 3.83615 5.98555 4.81568 5.98555 6.01308C5.98555 6.77056 6.37452 7.43939 6.96188 7.82925C6.25247 8.06645 5.63862 8.50979 5.18839 9.08977C4.93947 8.8983 4.66133 8.74432 4.36149 8.63398C4.81617 8.29643 5.1133 7.75419 5.1133 7.14476C5.1133 6.12922 4.29196 5.29788 3.28258 5.29788C2.27319 5.29788 1.45186 6.12922 1.45186 7.14476C1.45186 7.75454 1.74923 8.29703 2.2043 8.63458C0.999511 9.07916 0.139069 10.2431 0.139069 11.613V12.5753C0.139192 12.6486 0.168535 12.7189 0.220562 12.7705C0.272588 12.8223 0.342987 12.8512 0.416344 12.8509H4.63807C4.64831 12.852 4.65854 12.8527 4.66877 12.8525H11.6285C11.6387 12.8527 11.6491 12.852 11.6592 12.8509H15.8813C16.033 12.8503 16.1559 12.7271 16.1563 12.5753V11.613C16.1563 10.2431 15.2973 9.07916 14.0932 8.63446C14.5483 8.29703 14.8456 7.75441 14.8456 7.14464C14.8456 6.1291 14.0243 5.29775 13.0149 5.29775C12.0056 5.29775 11.1842 6.1291 11.1842 7.14464C11.1842 7.75407 11.4814 8.2964 11.9361 8.63386C11.6357 8.74445 11.3574 8.89893 11.1081 9.09087C10.6581 8.51054 10.0451 8.06659 9.33573 7.82925C9.92294 7.43939 10.3121 6.77056 10.3121 6.01308C10.3121 4.81568 9.34091 3.83615 8.14859 3.83615H8.14852ZM8.14852 4.38849C9.04027 4.38849 9.75916 5.1122 9.75916 6.01308C9.75916 6.90691 9.05148 7.62359 8.1696 7.63508C8.16258 7.63508 8.15567 7.63409 8.14852 7.63409C8.14137 7.63409 8.13459 7.63508 8.12744 7.63508C7.24557 7.62373 6.53836 6.90694 6.53836 6.01308C6.53836 5.11208 7.25664 4.38849 8.1484 4.38849H8.14852ZM3.28261 5.85018C3.99017 5.85018 4.561 6.42445 4.561 7.14473C4.561 7.86018 3.99755 8.43199 3.29665 8.43975C3.29197 8.43975 3.28741 8.43926 3.2826 8.43926C3.27792 8.43926 3.27335 8.43975 3.26855 8.43975C2.56765 8.43198 2.0042 7.86005 2.0042 7.14473C2.0042 6.42449 2.57503 5.85018 3.28259 5.85018H3.28261ZM13.0147 5.85018C13.7223 5.85018 14.2931 6.42445 14.2931 7.14473C14.2931 7.86018 13.7297 8.43199 13.0288 8.43975C13.0241 8.43975 13.0195 8.43926 13.0147 8.43926C13.0101 8.43926 13.0055 8.43975 13.0007 8.43975C12.2998 8.43198 11.7363 7.86005 11.7363 7.14473C11.7363 6.42449 12.3072 5.85018 13.0147 5.85018H13.0147ZM8.12737 8.18738C8.1344 8.1875 8.14131 8.18837 8.14846 8.18837C8.15548 8.18837 8.16239 8.18738 8.16954 8.18738C9.93811 8.19872 11.3535 9.62629 11.3535 11.4133L11.3534 12.3H4.94378V11.4133C4.94378 9.62613 6.35877 8.19874 8.12712 8.18738H8.12737ZM3.26146 8.99272C3.26849 8.99284 3.2754 8.9937 3.28255 8.9937C3.2897 8.9937 3.29648 8.99272 3.30363 8.99272C3.90182 8.99752 4.44775 9.20379 4.88245 9.54887C4.57139 10.0992 4.39151 10.7345 4.39151 11.4135V12.2981H0.69118V11.613C0.69118 10.1606 1.83309 9.00405 3.2614 8.99259L3.26146 8.99272ZM12.9936 8.99272C13.0007 8.99284 13.0075 8.9937 13.0147 8.9937C13.0218 8.9937 13.0286 8.99272 13.0358 8.99272C14.4641 9.00406 15.606 10.1608 15.606 11.6131V12.2981H11.9038L11.9036 11.4135C11.9036 10.7349 11.7243 10.1001 11.4138 9.54985C11.8486 9.20428 12.3949 8.99751 12.9936 8.99272H12.9936Z" fill="#103E13"/>
</svg>
